name C:\Users\u0101727\Documents\MyRepositories\upper-imu-dc\OpenSim\subject0\MA\MA_Splines\angle_in_n3_dof9_0.mot
datacolumns 10
datarows 56
range 75.01000000 75.56000000
endheader 
time	clav_prot	clav_elev	scapula_abduction	scapula_elevation	scapula_upward_rot	scapula_winging	plane_elv	shoulder_elv	axial_rot	
         75.01000000	        -44.34577705	          4.60560848	         11.28790885	         -0.36668095	         85.49388449	        -12.40251587	         15.98623168	          3.42008115	         13.30510256	
         75.02000000	        -30.62585626	          4.60560848	         11.28790885	         -0.36668095	         85.49388449	        -12.40251587	         15.98623168	          3.42008115	         13.30510256	
         75.03000000	        -16.90593547	          4.60560848	         11.28790885	         -0.36668095	         85.49388449	        -12.40251587	         15.98623168	          3.42008115	         13.30510256	
         75.04000000	        -44.34577705	         16.86370047	         11.28790885	         -0.36668095	         85.49388449	        -12.40251587	         15.98623168	          3.42008115	         13.30510256	
         75.05000000	        -30.62585626	         16.86370047	         11.28790885	         -0.36668095	         85.49388449	        -12.40251587	         15.98623168	          3.42008115	         13.30510256	
         75.06000000	        -16.90593547	         16.86370047	         11.28790885	         -0.36668095	         85.49388449	        -12.40251587	         15.98623168	          3.42008115	         13.30510256	
         75.07000000	        -44.34577705	         -7.65248351	        -30.88730313	          7.08700750	         85.49388449	        -12.40251587	         15.98623168	          3.42008115	         13.30510256	
         75.08000000	        -30.62585626	         -7.65248351	        -30.88730313	          7.08700750	         85.49388449	        -12.40251587	         15.98623168	          3.42008115	         13.30510256	
         75.09000000	        -16.90593547	         -7.65248351	        -30.88730313	          7.08700750	         85.49388449	        -12.40251587	         15.98623168	          3.42008115	         13.30510256	
         75.10000000	        -44.34577705	          4.60560848	        -30.88730313	          7.08700750	         85.49388449	        -12.40251587	         15.98623168	          3.42008115	         13.30510256	
         75.11000000	        -30.62585626	          4.60560848	        -30.88730313	          7.08700750	         85.49388449	        -12.40251587	         15.98623168	          3.42008115	         13.30510256	
         75.12000000	        -16.90593547	          4.60560848	        -30.88730313	          7.08700750	         85.49388449	        -12.40251587	         15.98623168	          3.42008115	         13.30510256	
         75.13000000	        -44.34577705	         16.86370047	        -30.88730313	          7.08700750	         85.49388449	        -12.40251587	         15.98623168	          3.42008115	         13.30510256	
         75.14000000	        -30.62585626	         16.86370047	        -30.88730313	          7.08700750	         85.49388449	        -12.40251587	         15.98623168	          3.42008115	         13.30510256	
         75.15000000	        -16.90593547	         16.86370047	        -30.88730313	          7.08700750	         85.49388449	        -12.40251587	         15.98623168	          3.42008115	         13.30510256	
         75.16000000	        -44.34577705	         -7.65248351	         -9.79969714	          7.08700750	         85.49388449	        -12.40251587	         15.98623168	          3.42008115	         13.30510256	
         75.17000000	        -30.62585626	         -7.65248351	         -9.79969714	          7.08700750	         85.49388449	        -12.40251587	         15.98623168	          3.42008115	         13.30510256	
         75.18000000	        -16.90593547	         -7.65248351	         -9.79969714	          7.08700750	         85.49388449	        -12.40251587	         15.98623168	          3.42008115	         13.30510256	
         75.19000000	        -44.34577705	          4.60560848	         -9.79969714	          7.08700750	         85.49388449	        -12.40251587	         15.98623168	          3.42008115	         13.30510256	
         75.20000000	        -30.62585626	          4.60560848	         -9.79969714	          7.08700750	         85.49388449	        -12.40251587	         15.98623168	          3.42008115	         13.30510256	
         75.21000000	        -16.90593547	          4.60560848	         -9.79969714	          7.08700750	         85.49388449	        -12.40251587	         15.98623168	          3.42008115	         13.30510256	
         75.22000000	        -44.34577705	         16.86370047	         -9.79969714	          7.08700750	         85.49388449	        -12.40251587	         15.98623168	          3.42008115	         13.30510256	
         75.23000000	        -30.62585626	         16.86370047	         -9.79969714	          7.08700750	         85.49388449	        -12.40251587	         15.98623168	          3.42008115	         13.30510256	
         75.24000000	        -16.90593547	         16.86370047	         -9.79969714	          7.08700750	         85.49388449	        -12.40251587	         15.98623168	          3.42008115	         13.30510256	
         75.25000000	        -44.34577705	         -7.65248351	         11.28790885	          7.08700750	         85.49388449	        -12.40251587	         15.98623168	          3.42008115	         13.30510256	
         75.26000000	        -30.62585626	         -7.65248351	         11.28790885	          7.08700750	         85.49388449	        -12.40251587	         15.98623168	          3.42008115	         13.30510256	
         75.27000000	        -16.90593547	         -7.65248351	         11.28790885	          7.08700750	         85.49388449	        -12.40251587	         15.98623168	          3.42008115	         13.30510256	
         75.28000000	        -44.34577705	          4.60560848	         11.28790885	          7.08700750	         85.49388449	        -12.40251587	         15.98623168	          3.42008115	         13.30510256	
         75.29000000	        -30.62585626	          4.60560848	         11.28790885	          7.08700750	         85.49388449	        -12.40251587	         15.98623168	          3.42008115	         13.30510256	
         75.30000000	        -16.90593547	          4.60560848	         11.28790885	          7.08700750	         85.49388449	        -12.40251587	         15.98623168	          3.42008115	         13.30510256	
         75.31000000	        -44.34577705	         16.86370047	         11.28790885	          7.08700750	         85.49388449	        -12.40251587	         15.98623168	          3.42008115	         13.30510256	
         75.32000000	        -30.62585626	         16.86370047	         11.28790885	          7.08700750	         85.49388449	        -12.40251587	         15.98623168	          3.42008115	         13.30510256	
         75.33000000	        -16.90593547	         16.86370047	         11.28790885	          7.08700750	         85.49388449	        -12.40251587	         15.98623168	          3.42008115	         13.30510256	
         75.34000000	        -44.34577705	         -7.65248351	        -30.88730313	         -7.82036939	          8.23102828	         -2.83128850	         15.98623168	          3.42008115	         13.30510256	
         75.35000000	        -30.62585626	         -7.65248351	        -30.88730313	         -7.82036939	          8.23102828	         -2.83128850	         15.98623168	          3.42008115	         13.30510256	
         75.36000000	        -16.90593547	         -7.65248351	        -30.88730313	         -7.82036939	          8.23102828	         -2.83128850	         15.98623168	          3.42008115	         13.30510256	
         75.37000000	        -44.34577705	          4.60560848	        -30.88730313	         -7.82036939	          8.23102828	         -2.83128850	         15.98623168	          3.42008115	         13.30510256	
         75.38000000	        -30.62585626	          4.60560848	        -30.88730313	         -7.82036939	          8.23102828	         -2.83128850	         15.98623168	          3.42008115	         13.30510256	
         75.39000000	        -16.90593547	          4.60560848	        -30.88730313	         -7.82036939	          8.23102828	         -2.83128850	         15.98623168	          3.42008115	         13.30510256	
         75.40000000	        -44.34577705	         16.86370047	        -30.88730313	         -7.82036939	          8.23102828	         -2.83128850	         15.98623168	          3.42008115	         13.30510256	
         75.41000000	        -30.62585626	         16.86370047	        -30.88730313	         -7.82036939	          8.23102828	         -2.83128850	         15.98623168	          3.42008115	         13.30510256	
         75.42000000	        -16.90593547	         16.86370047	        -30.88730313	         -7.82036939	          8.23102828	         -2.83128850	         15.98623168	          3.42008115	         13.30510256	
         75.43000000	        -44.34577705	         -7.65248351	         -9.79969714	         -7.82036939	          8.23102828	         -2.83128850	         15.98623168	          3.42008115	         13.30510256	
         75.44000000	        -30.62585626	         -7.65248351	         -9.79969714	         -7.82036939	          8.23102828	         -2.83128850	         15.98623168	          3.42008115	         13.30510256	
         75.45000000	        -16.90593547	         -7.65248351	         -9.79969714	         -7.82036939	          8.23102828	         -2.83128850	         15.98623168	          3.42008115	         13.30510256	
         75.46000000	        -44.34577705	          4.60560848	         -9.79969714	         -7.82036939	          8.23102828	         -2.83128850	         15.98623168	          3.42008115	         13.30510256	
         75.47000000	        -30.62585626	          4.60560848	         -9.79969714	         -7.82036939	          8.23102828	         -2.83128850	         15.98623168	          3.42008115	         13.30510256	
         75.48000000	        -16.90593547	          4.60560848	         -9.79969714	         -7.82036939	          8.23102828	         -2.83128850	         15.98623168	          3.42008115	         13.30510256	
         75.49000000	        -44.34577705	         16.86370047	         -9.79969714	         -7.82036939	          8.23102828	         -2.83128850	         15.98623168	          3.42008115	         13.30510256	
         75.50000000	        -30.62585626	         16.86370047	         -9.79969714	         -7.82036939	          8.23102828	         -2.83128850	         15.98623168	          3.42008115	         13.30510256	
         75.51000000	        -16.90593547	         16.86370047	         -9.79969714	         -7.82036939	          8.23102828	         -2.83128850	         15.98623168	          3.42008115	         13.30510256	
         75.52000000	        -44.34577705	         -7.65248351	         11.28790885	         -7.82036939	          8.23102828	         -2.83128850	         15.98623168	          3.42008115	         13.30510256	
         75.53000000	        -30.62585626	         -7.65248351	         11.28790885	         -7.82036939	          8.23102828	         -2.83128850	         15.98623168	          3.42008115	         13.30510256	
         75.54000000	        -16.90593547	         -7.65248351	         11.28790885	         -7.82036939	          8.23102828	         -2.83128850	         15.98623168	          3.42008115	         13.30510256	
         75.55000000	        -44.34577705	          4.60560848	         11.28790885	         -7.82036939	          8.23102828	         -2.83128850	         15.98623168	          3.42008115	         13.30510256	
         75.56000000	        -30.62585626	          4.60560848	         11.28790885	         -7.82036939	          8.23102828	         -2.83128850	         15.98623168	          3.42008115	         13.30510256	
